<svg width="440" height="497" viewBox="0 0 440 497" fill="none" xmlns="http://www.w3.org/2000/svg">
<path d="M439.974 0.583984H47.4084C-13.1536 94.2034 2.55627 235.382 0.718704 365.839C-0.911812 409.258 0.226952 453.057 4.18678 496.754H439.974V0.583984Z" fill="#FFB3CB"/>
<path d="M439.973 63.1836C425.299 70.7544 410.236 78.7318 394.604 86.8616C319.755 128.069 225.625 167.956 178.392 216.481L175.519 219.58L175.234 219.809C114.284 285.406 119.745 392.516 120.599 496.755H439.973V63.1836Z" fill="#FFEEF3"/>
<path d="M439.974 255.629C435.859 257.788 431.692 259.948 427.499 262.133C364.039 296.913 284.376 330.829 244.364 371.808L241.854 374.476V374.247C212.271 405.954 201.168 449.118 197.208 496.727H440V255.604L439.974 255.629Z" fill="#FF246B"/>
</svg>
