<svg width="487" height="120" viewBox="0 0 487 120" fill="none" xmlns="http://www.w3.org/2000/svg">
<path d="M87.6003 104.193H87.4215C78.3996 104.193 71.0968 96.7274 71.0968 87.5047C71.0968 78.282 83.1719 68.4406 83.1719 58.9227C83.1719 49.8968 71.0968 40.8708 71.0968 31.8449C71.0968 30.7343 71.2068 24.8154 75.8828 20.0494C78.8397 17.0267 82.9243 15.1569 87.4215 15.1569H87.6003C96.6222 15.1569 103.925 22.6222 103.925 31.8449C103.925 41.0536 116 50.2623 116 59.471C116 68.6796 103.925 78.1554 103.925 87.5047C103.966 88.5029 104.104 94.6467 99.3315 99.5111C94.573 104.376 88.5767 104.235 87.6003 104.193Z" fill="#EDB600" fill-opacity="0.33"/>
<path d="M59.7515 115.084H59.5281C48.2507 115.084 39.1222 105.872 39.1222 94.4905C39.1222 83.1092 54.216 70.9646 54.216 59.2191C54.216 48.0807 39.1222 36.9424 39.1222 25.804C39.1222 24.4334 39.2597 17.1293 45.1047 11.2478C48.8008 7.51768 53.9066 5.21021 59.5281 5.21021H59.7515C71.0289 5.21021 80.1574 14.4228 80.1574 25.804C80.1574 37.1679 95.2512 48.5318 95.2512 59.8957C95.2512 71.2596 80.1574 82.9531 80.1574 94.4905C80.209 95.7223 80.3809 103.304 74.4156 109.307C68.4674 115.31 60.9721 115.136 59.7515 115.084Z" fill="#EDB600" fill-opacity="0.57"/>
<path d="M22.4516 119.986H22.2084C9.93484 119.986 0 109.925 0 97.4966C0 85.0679 16.4271 71.8057 16.4271 58.9792C16.4271 46.8158 0 34.6524 0 22.489C0 20.9923 0.149676 13.016 6.51097 6.59324C10.5335 2.51983 16.0903 0 22.2084 0H22.4516C34.7252 0 44.66 10.0604 44.66 22.489C44.66 34.8987 61.0871 47.3084 61.0871 59.7181C61.0871 72.1278 44.66 84.8974 44.66 97.4966C44.7161 98.8417 44.9032 107.121 38.411 113.677C31.9374 120.232 23.78 120.042 22.4516 119.986Z" fill="#EDB600"/>
<path d="M171.296 72.08H151.84L148.256 82H142.112L158.24 37.648H164.96L181.024 82H174.88L171.296 72.08ZM169.632 67.344L161.568 44.816L153.504 67.344H169.632ZM185.877 64.4C185.877 60.7733 186.602 57.616 188.053 54.928C189.504 52.1973 191.509 50.0853 194.069 48.592C196.672 47.0987 199.637 46.352 202.965 46.352C207.274 46.352 210.816 47.3973 213.589 49.488C216.405 51.5787 218.261 54.48 219.157 58.192H212.885C212.288 56.0587 211.114 54.3733 209.365 53.136C207.658 51.8987 205.525 51.28 202.965 51.28C199.637 51.28 196.949 52.432 194.901 54.736C192.853 56.9973 191.829 60.2187 191.829 64.4C191.829 68.624 192.853 71.888 194.901 74.192C196.949 76.496 199.637 77.648 202.965 77.648C205.525 77.648 207.658 77.0507 209.365 75.856C211.072 74.6613 212.245 72.9547 212.885 70.736H219.157C218.218 74.32 216.341 77.2 213.525 79.376C210.709 81.5093 207.189 82.576 202.965 82.576C199.637 82.576 196.672 81.8293 194.069 80.336C191.509 78.8427 189.504 76.7307 188.053 74C186.602 71.2693 185.877 68.0693 185.877 64.4ZM224.752 64.4C224.752 60.7733 225.477 57.616 226.928 54.928C228.379 52.1973 230.384 50.0853 232.944 48.592C235.547 47.0987 238.512 46.352 241.84 46.352C246.149 46.352 249.691 47.3973 252.464 49.488C255.28 51.5787 257.136 54.48 258.032 58.192H251.76C251.163 56.0587 249.989 54.3733 248.24 53.136C246.533 51.8987 244.4 51.28 241.84 51.28C238.512 51.28 235.824 52.432 233.776 54.736C231.728 56.9973 230.704 60.2187 230.704 64.4C230.704 68.624 231.728 71.888 233.776 74.192C235.824 76.496 238.512 77.648 241.84 77.648C244.4 77.648 246.533 77.0507 248.24 75.856C249.947 74.6613 251.12 72.9547 251.76 70.736H258.032C257.093 74.32 255.216 77.2 252.4 79.376C249.584 81.5093 246.064 82.576 241.84 82.576C238.512 82.576 235.547 81.8293 232.944 80.336C230.384 78.8427 228.379 76.7307 226.928 74C225.477 71.2693 224.752 68.0693 224.752 64.4ZM297.803 63.12C297.803 64.2293 297.739 65.4027 297.611 66.64H269.579C269.792 70.096 270.966 72.8053 273.099 74.768C275.275 76.688 277.899 77.648 280.971 77.648C283.488 77.648 285.579 77.072 287.243 75.92C288.95 74.7253 290.144 73.1467 290.827 71.184H297.099C296.16 74.5547 294.283 77.3067 291.467 79.44C288.651 81.5307 285.152 82.576 280.971 82.576C277.643 82.576 274.656 81.8293 272.011 80.336C269.408 78.8427 267.36 76.7307 265.867 74C264.374 71.2267 263.627 68.0267 263.627 64.4C263.627 60.7733 264.352 57.5947 265.803 54.864C267.254 52.1333 269.28 50.0427 271.883 48.592C274.528 47.0987 277.558 46.352 280.971 46.352C284.299 46.352 287.243 47.0773 289.803 48.528C292.363 49.9787 294.326 51.984 295.691 54.544C297.099 57.0613 297.803 59.92 297.803 63.12ZM291.787 61.904C291.787 59.6853 291.296 57.7867 290.315 56.208C289.334 54.5867 287.99 53.3707 286.283 52.56C284.619 51.7067 282.763 51.28 280.715 51.28C277.771 51.28 275.254 52.2187 273.163 54.096C271.115 55.9733 269.942 58.576 269.643 61.904H291.787ZM311.315 34.64V82H305.491V34.64H311.315ZM353.241 63.12C353.241 64.2293 353.177 65.4027 353.049 66.64H325.017C325.23 70.096 326.403 72.8053 328.537 74.768C330.713 76.688 333.337 77.648 336.409 77.648C338.926 77.648 341.017 77.072 342.681 75.92C344.387 74.7253 345.582 73.1467 346.265 71.184H352.537C351.598 74.5547 349.721 77.3067 346.905 79.44C344.089 81.5307 340.59 82.576 336.409 82.576C333.081 82.576 330.094 81.8293 327.449 80.336C324.846 78.8427 322.798 76.7307 321.305 74C319.811 71.2267 319.065 68.0267 319.065 64.4C319.065 60.7733 319.79 57.5947 321.241 54.864C322.691 52.1333 324.718 50.0427 327.321 48.592C329.966 47.0987 332.995 46.352 336.409 46.352C339.737 46.352 342.681 47.0773 345.241 48.528C347.801 49.9787 349.763 51.984 351.129 54.544C352.537 57.0613 353.241 59.92 353.241 63.12ZM347.225 61.904C347.225 59.6853 346.734 57.7867 345.753 56.208C344.771 54.5867 343.427 53.3707 341.721 52.56C340.057 51.7067 338.201 51.28 336.153 51.28C333.209 51.28 330.691 52.2187 328.601 54.096C326.553 55.9733 325.379 58.576 325.081 61.904H347.225ZM366.752 52.624C367.776 50.6187 369.227 49.0613 371.104 47.952C373.024 46.8427 375.349 46.288 378.08 46.288V52.304H376.544C370.016 52.304 366.752 55.8453 366.752 62.928V82H360.928V46.928H366.752V52.624ZM382.627 64.336C382.627 60.752 383.352 57.616 384.803 54.928C386.254 52.1973 388.238 50.0853 390.755 48.592C393.315 47.0987 396.152 46.352 399.267 46.352C402.339 46.352 405.006 47.0133 407.267 48.336C409.528 49.6587 411.214 51.3227 412.323 53.328V46.928H418.211V82H412.323V75.472C411.171 77.52 409.443 79.2267 407.139 80.592C404.878 81.9147 402.232 82.576 399.203 82.576C396.088 82.576 393.272 81.808 390.755 80.272C388.238 78.736 386.254 76.5813 384.803 73.808C383.352 71.0347 382.627 67.8773 382.627 64.336ZM412.323 64.4C412.323 61.7547 411.79 59.4507 410.723 57.488C409.656 55.5253 408.206 54.032 406.371 53.008C404.579 51.9413 402.595 51.408 400.419 51.408C398.243 51.408 396.259 51.92 394.467 52.944C392.675 53.968 391.246 55.4613 390.179 57.424C389.112 59.3867 388.579 61.6907 388.579 64.336C388.579 67.024 389.112 69.3707 390.179 71.376C391.246 73.3387 392.675 74.8533 394.467 75.92C396.259 76.944 398.243 77.456 400.419 77.456C402.595 77.456 404.579 76.944 406.371 75.92C408.206 74.8533 409.656 73.3387 410.723 71.376C411.79 69.3707 412.323 67.0453 412.323 64.4ZM435.157 51.728V72.4C435.157 74.1067 435.52 75.3227 436.245 76.048C436.97 76.7307 438.229 77.072 440.021 77.072H444.309V82H439.061C435.818 82 433.386 81.2533 431.765 79.76C430.144 78.2667 429.333 75.8133 429.333 72.4V51.728H424.789V46.928H429.333V38.096H435.157V46.928H444.309V51.728H435.157ZM483.366 63.12C483.366 64.2293 483.302 65.4027 483.174 66.64H455.142C455.355 70.096 456.528 72.8053 458.662 74.768C460.838 76.688 463.462 77.648 466.534 77.648C469.051 77.648 471.142 77.072 472.806 75.92C474.512 74.7253 475.707 73.1467 476.39 71.184H482.662C481.723 74.5547 479.846 77.3067 477.03 79.44C474.214 81.5307 470.715 82.576 466.534 82.576C463.206 82.576 460.219 81.8293 457.574 80.336C454.971 78.8427 452.923 76.7307 451.43 74C449.936 71.2267 449.19 68.0267 449.19 64.4C449.19 60.7733 449.915 57.5947 451.366 54.864C452.816 52.1333 454.843 50.0427 457.446 48.592C460.091 47.0987 463.12 46.352 466.534 46.352C469.862 46.352 472.806 47.0773 475.366 48.528C477.926 49.9787 479.888 51.984 481.254 54.544C482.662 57.0613 483.366 59.92 483.366 63.12ZM477.35 61.904C477.35 59.6853 476.859 57.7867 475.878 56.208C474.896 54.5867 473.552 53.3707 471.846 52.56C470.182 51.7067 468.326 51.28 466.278 51.28C463.334 51.28 460.816 52.2187 458.726 54.096C456.678 55.9733 455.504 58.576 455.206 61.904H477.35Z" fill="#020C17"/>
</svg>
