<svg width="470" height="530" viewBox="0 0 470 530" fill="none" xmlns="http://www.w3.org/2000/svg">
<path d="M175.98 0H0L0.000114547 530H175.99C181.436 440.594 299.615 351.053 299.615 263.026C299.615 174.999 182.256 87.6755 175.98 0Z" fill="#F5D56E"/>
<path d="M0.0921257 191.876C0.175063 237.093 0.340919 285.366 0.506793 330.934C11.7862 307.704 19.1123 284.581 19.1123 261.621C19.1123 238.661 11.565 215.133 0.0644531 191.876H0.0921257Z" fill="#ECB500"/>
<path d="M370.86 481.918C370.86 407.791 470 332.664 470 259.673C470 186.682 370.86 113.664 370.86 40.6466C370.86 26.4487 368.565 12.8187 364.39 0H108.025C101.583 19.7689 101.307 35.8599 101.307 40.6466C101.307 112.204 200.447 183.762 200.447 255.319C200.447 330.771 101.307 408.792 101.307 481.918C101.307 499.28 104.351 514.828 110.489 530H362.996C371.76 506.12 371.026 486.786 370.832 481.918H370.86Z" fill="#EDB600" fill-opacity="0.22"/>
</svg>
