<svg width="409" height="120" viewBox="0 0 409 120" fill="none" xmlns="http://www.w3.org/2000/svg">
<g clip-path="url(#clip0_51_1266)">
<g opacity="0.24">
<path d="M36.1147 105.429L46.5242 116.727C48.2569 118.608 51.1847 118.726 53.0637 116.992L71.2611 100.198C73.1401 98.4638 73.2587 95.5336 71.526 93.653L61.1165 82.355C59.3838 80.4745 56.456 80.3558 54.577 82.0899L36.3796 98.8841C34.5006 100.618 34.382 103.548 36.1147 105.429Z" fill="url(#paint0_linear_51_1266)"/>
<path d="M10.0998 75.6225L9.47823 90.9781C9.37477 93.5341 11.3612 95.69 13.915 95.7936L38.648 96.7964C41.2018 96.9 43.356 94.9119 43.4594 92.356L44.081 77.0003C44.1845 74.4444 42.1981 72.2884 39.6442 72.1849L14.9113 71.182C12.3575 71.0785 10.2033 73.0665 10.0998 75.6225Z" fill="url(#paint1_linear_51_1266)"/>
<path d="M12.7671 36.14L1.47852 46.5582C-0.400476 48.2923 -0.519093 51.2226 1.21358 53.1031L17.9939 71.3156C19.7265 73.1961 22.6544 73.3148 24.5334 71.5807L35.822 61.1625C37.701 59.4284 37.8196 56.4982 36.087 54.6176L19.3067 36.4052C17.574 34.5246 14.6461 34.4059 12.7671 36.14Z" fill="url(#paint2_linear_51_1266)"/>
<path d="M42.5507 10.1175L27.2078 9.4954C24.6539 9.39185 22.4997 11.3799 22.3963 13.9359L21.3943 38.6893C21.2908 41.2453 23.2772 43.4012 25.831 43.5048L41.174 44.1269C43.7278 44.2304 45.882 42.2424 45.9854 39.6864L46.9875 14.933C47.0909 12.377 45.1045 10.2211 42.5507 10.1175Z" fill="url(#paint3_linear_51_1266)"/>
<path d="M81.9948 12.7955L71.5853 1.49749C69.8526 -0.383069 66.9248 -0.501787 65.0458 1.23233L46.8484 18.0265C44.9694 19.7606 44.8508 22.6909 46.5835 24.5715L56.993 35.8694C58.7257 37.75 61.6535 37.8687 63.5325 36.1346L81.7299 19.3404C83.6089 17.6063 83.7275 14.676 81.9948 12.7955Z" fill="url(#paint4_linear_51_1266)"/>
<path d="M107.999 42.5767L108.621 27.2211C108.724 24.6651 106.738 22.5092 104.184 22.4056L79.4509 21.4028C76.8971 21.2992 74.7429 23.2873 74.6394 25.8432L74.0178 41.1989C73.9144 43.7548 75.9008 45.9108 78.4546 46.0143L103.188 47.0172C105.741 47.1207 107.896 45.1327 107.999 42.5767Z" fill="url(#paint5_linear_51_1266)"/>
<path d="M105.342 82.0582L116.63 71.64C118.509 69.9059 118.628 66.9756 116.895 65.0951L100.115 46.8826C98.3823 45.0021 95.4545 44.8833 93.5755 46.6175L82.2869 57.0356C80.4079 58.7697 80.2893 61.7 82.0219 63.5806L98.8022 81.793C100.535 83.6736 103.463 83.7923 105.342 82.0582Z" fill="url(#paint6_linear_51_1266)"/>
<path d="M75.5521 108.08L90.895 108.702C93.4489 108.806 95.603 106.818 95.7065 104.262L96.7085 79.5083C96.812 76.9523 94.8256 74.7964 92.2717 74.6928L76.9288 74.0707C74.375 73.9672 72.2208 75.9552 72.1173 78.5112L71.1153 103.265C71.0118 105.821 72.9983 107.977 75.5521 108.08Z" fill="url(#paint7_linear_51_1266)"/>
</g>
<path d="M39.0061 107.203L49.4157 118.501C51.1484 120.382 54.0762 120.5 55.9552 118.766L74.1526 101.972C76.0316 100.238 76.1502 97.3076 74.4175 95.427L64.008 84.129C62.2753 82.2485 59.3474 82.1298 57.4684 83.8639L39.2711 100.658C37.3921 102.392 37.2735 105.322 39.0061 107.203Z" fill="url(#paint8_linear_51_1266)"/>
<path d="M12.9992 77.4188L12.3776 92.7744C12.2742 95.3304 14.2606 97.4863 16.8144 97.5899L41.5474 98.5927C44.1012 98.6963 46.2554 96.7082 46.3589 94.1523L46.9805 78.7966C47.0839 76.2407 45.0975 74.0847 42.5437 73.9812L17.8107 72.9783C15.2569 72.8748 13.1027 74.8628 12.9992 77.4188Z" fill="url(#paint9_linear_51_1266)"/>
<path d="M15.6627 37.9457L4.37403 48.3639C2.49503 50.098 2.37641 53.0283 4.10909 54.9088L20.8894 73.1213C22.6221 75.0018 25.5499 75.1205 27.4289 73.3864L38.7175 62.9682C40.5965 61.2341 40.7151 58.3039 38.9825 56.4233L22.2022 38.2109C20.4695 36.3303 17.5417 36.2116 15.6627 37.9457Z" fill="url(#paint10_linear_51_1266)"/>
<path d="M45.4376 11.9013L30.0947 11.2792C27.5409 11.1757 25.3867 13.1637 25.2832 15.7197L24.2812 40.4731C24.1777 43.0291 26.1642 45.185 28.718 45.2886L44.0609 45.9107C46.6148 46.0142 48.7689 44.0262 48.8724 41.4702L49.8744 16.7168C49.9779 14.1608 47.9915 12.0049 45.4376 11.9013Z" fill="url(#paint11_linear_51_1266)"/>
<path d="M84.8895 14.5754L74.4799 3.27739C72.7473 1.39684 69.8194 1.27812 67.9404 3.01223L49.7431 19.8064C47.8641 21.5405 47.7454 24.4708 49.4781 26.3514L59.8877 37.6493C61.6203 39.5299 64.5482 39.6486 66.4272 37.9145L84.6245 21.1203C86.5035 19.3862 86.6222 16.4559 84.8895 14.5754Z" fill="url(#paint12_linear_51_1266)"/>
<path d="M110.88 44.3652L111.502 29.0095C111.605 26.4536 109.619 24.2976 107.065 24.194L82.332 23.1912C79.7782 23.0876 77.624 25.0757 77.5205 27.6317L76.8989 42.9873C76.7955 45.5433 78.7819 47.6992 81.3357 47.8028L106.069 48.8056C108.623 48.9092 110.777 46.9211 110.88 44.3652Z" fill="url(#paint13_linear_51_1266)"/>
<path d="M108.227 83.8372L119.515 73.419C121.394 71.6849 121.513 68.7546 119.78 66.8741L103 48.6616C101.267 46.7811 98.3394 46.6624 96.4604 48.3965L85.1718 58.8147C83.2928 60.5488 83.1741 63.479 84.9068 65.3596L101.687 83.572C103.42 85.4526 106.348 85.5713 108.227 83.8372Z" fill="url(#paint14_linear_51_1266)"/>
<path d="M78.4455 109.881L93.7885 110.503C96.3423 110.607 98.4965 108.619 98.5999 106.063L99.602 81.3092C99.7054 78.7533 97.719 76.5973 95.1652 76.4938L79.8222 75.8717C77.2684 75.7681 75.1142 77.7562 75.0108 80.3121L74.0087 105.066C73.9053 107.622 75.8917 109.777 78.4455 109.881Z" fill="url(#paint15_linear_51_1266)"/>
</g>
<path d="M170.152 82.448C166.013 82.448 162.237 81.488 158.824 79.568C155.411 77.6053 152.701 74.896 150.696 71.44C148.733 67.9413 147.752 64.016 147.752 59.664C147.752 55.312 148.733 51.408 150.696 47.952C152.701 44.4533 155.411 41.744 158.824 39.824C162.237 37.8613 166.013 36.88 170.152 36.88C174.333 36.88 178.131 37.8613 181.544 39.824C184.957 41.744 187.645 44.432 189.608 47.888C191.571 51.344 192.552 55.2693 192.552 59.664C192.552 64.0587 191.571 67.984 189.608 71.44C187.645 74.896 184.957 77.6053 181.544 79.568C178.131 81.488 174.333 82.448 170.152 82.448ZM170.152 77.392C173.267 77.392 176.061 76.6667 178.536 75.216C181.053 73.7653 183.016 71.696 184.424 69.008C185.875 66.32 186.6 63.2053 186.6 59.664C186.6 56.08 185.875 52.9653 184.424 50.32C183.016 47.632 181.075 45.5627 178.6 44.112C176.125 42.6613 173.309 41.936 170.152 41.936C166.995 41.936 164.179 42.6613 161.704 44.112C159.229 45.5627 157.267 47.632 155.816 50.32C154.408 52.9653 153.704 56.08 153.704 59.664C153.704 63.2053 154.408 66.32 155.816 69.008C157.267 71.696 159.229 73.7653 161.704 75.216C164.221 76.6667 167.037 77.392 170.152 77.392ZM206.065 53.392C207.217 51.3867 208.923 49.7227 211.185 48.4C213.489 47.0347 216.155 46.352 219.185 46.352C222.299 46.352 225.115 47.0987 227.632 48.592C230.192 50.0853 232.198 52.1973 233.649 54.928C235.099 57.616 235.825 60.752 235.825 64.336C235.825 67.8773 235.099 71.0347 233.649 73.808C232.198 76.5813 230.192 78.736 227.632 80.272C225.115 81.808 222.299 82.576 219.185 82.576C216.198 82.576 213.553 81.9147 211.249 80.592C208.987 79.2267 207.259 77.5413 206.065 75.536V98.64H200.241V46.928H206.065V53.392ZM229.873 64.336C229.873 61.6907 229.339 59.3867 228.273 57.424C227.206 55.4613 225.755 53.968 223.921 52.944C222.129 51.92 220.145 51.408 217.969 51.408C215.835 51.408 213.851 51.9413 212.017 53.008C210.225 54.032 208.774 55.5467 207.665 57.552C206.598 59.5147 206.065 61.7973 206.065 64.4C206.065 67.0453 206.598 69.3707 207.665 71.376C208.774 73.3387 210.225 74.8533 212.017 75.92C213.851 76.944 215.835 77.456 217.969 77.456C220.145 77.456 222.129 76.944 223.921 75.92C225.755 74.8533 227.206 73.3387 228.273 71.376C229.339 69.3707 229.873 67.024 229.873 64.336ZM275.491 63.12C275.491 64.2293 275.427 65.4027 275.299 66.64H247.267C247.48 70.096 248.653 72.8053 250.787 74.768C252.963 76.688 255.587 77.648 258.659 77.648C261.176 77.648 263.267 77.072 264.931 75.92C266.637 74.7253 267.832 73.1467 268.515 71.184H274.787C273.848 74.5547 271.971 77.3067 269.155 79.44C266.339 81.5307 262.84 82.576 258.659 82.576C255.331 82.576 252.344 81.8293 249.699 80.336C247.096 78.8427 245.048 76.7307 243.555 74C242.061 71.2267 241.315 68.0267 241.315 64.4C241.315 60.7733 242.04 57.5947 243.491 54.864C244.941 52.1333 246.968 50.0427 249.571 48.592C252.216 47.0987 255.245 46.352 258.659 46.352C261.987 46.352 264.931 47.0773 267.491 48.528C270.051 49.9787 272.013 51.984 273.379 54.544C274.787 57.0613 275.491 59.92 275.491 63.12ZM269.475 61.904C269.475 59.6853 268.984 57.7867 268.003 56.208C267.021 54.5867 265.677 53.3707 263.971 52.56C262.307 51.7067 260.451 51.28 258.403 51.28C255.459 51.28 252.941 52.2187 250.851 54.096C248.803 55.9733 247.629 58.576 247.331 61.904H269.475ZM289.002 52.624C290.026 50.6187 291.477 49.0613 293.354 47.952C295.274 46.8427 297.599 46.288 300.33 46.288V52.304H298.794C292.266 52.304 289.002 55.8453 289.002 62.928V82H283.178V46.928H289.002V52.624ZM304.877 64.336C304.877 60.752 305.602 57.616 307.053 54.928C308.504 52.1973 310.488 50.0853 313.005 48.592C315.565 47.0987 318.402 46.352 321.517 46.352C324.589 46.352 327.256 47.0133 329.517 48.336C331.778 49.6587 333.464 51.3227 334.573 53.328V46.928H340.461V82H334.573V75.472C333.421 77.52 331.693 79.2267 329.389 80.592C327.128 81.9147 324.482 82.576 321.453 82.576C318.338 82.576 315.522 81.808 313.005 80.272C310.488 78.736 308.504 76.5813 307.053 73.808C305.602 71.0347 304.877 67.8773 304.877 64.336ZM334.573 64.4C334.573 61.7547 334.04 59.4507 332.973 57.488C331.906 55.5253 330.456 54.032 328.621 53.008C326.829 51.9413 324.845 51.408 322.669 51.408C320.493 51.408 318.509 51.92 316.717 52.944C314.925 53.968 313.496 55.4613 312.429 57.424C311.362 59.3867 310.829 61.6907 310.829 64.336C310.829 67.024 311.362 69.3707 312.429 71.376C313.496 73.3387 314.925 74.8533 316.717 75.92C318.509 76.944 320.493 77.456 322.669 77.456C324.845 77.456 326.829 76.944 328.621 75.92C330.456 74.8533 331.906 73.3387 332.973 71.376C334.04 69.3707 334.573 67.0453 334.573 64.4ZM357.407 51.728V72.4C357.407 74.1067 357.77 75.3227 358.495 76.048C359.22 76.7307 360.479 77.072 362.271 77.072H366.559V82H361.311C358.068 82 355.636 81.2533 354.015 79.76C352.394 78.2667 351.583 75.8133 351.583 72.4V51.728H347.039V46.928H351.583V38.096H357.407V46.928H366.559V51.728H357.407ZM405.616 63.12C405.616 64.2293 405.552 65.4027 405.424 66.64H377.392C377.605 70.096 378.778 72.8053 380.912 74.768C383.088 76.688 385.712 77.648 388.784 77.648C391.301 77.648 393.392 77.072 395.056 75.92C396.762 74.7253 397.957 73.1467 398.64 71.184H404.912C403.973 74.5547 402.096 77.3067 399.28 79.44C396.464 81.5307 392.965 82.576 388.784 82.576C385.456 82.576 382.469 81.8293 379.824 80.336C377.221 78.8427 375.173 76.7307 373.68 74C372.186 71.2267 371.44 68.0267 371.44 64.4C371.44 60.7733 372.165 57.5947 373.616 54.864C375.066 52.1333 377.093 50.0427 379.696 48.592C382.341 47.0987 385.37 46.352 388.784 46.352C392.112 46.352 395.056 47.0773 397.616 48.528C400.176 49.9787 402.138 51.984 403.504 54.544C404.912 57.0613 405.616 59.92 405.616 63.12ZM399.6 61.904C399.6 59.6853 399.109 57.7867 398.128 56.208C397.146 54.5867 395.802 53.3707 394.096 52.56C392.432 51.7067 390.576 51.28 388.528 51.28C385.584 51.28 383.066 52.2187 380.976 54.096C378.928 55.9733 377.754 58.576 377.456 61.904H399.6Z" fill="#020C17"/>
<defs>
<linearGradient id="paint0_linear_51_1266" x1="71.474" y1="103.055" x2="34.8618" y2="98.3165" gradientUnits="userSpaceOnUse">
<stop stop-color="#1175E4"/>
<stop offset="1" stop-color="#1561BE"/>
</linearGradient>
<linearGradient id="paint1_linear_51_1266" x1="37.1076" y1="99.3407" x2="14.5601" y2="70.1075" gradientUnits="userSpaceOnUse">
<stop stop-color="#1175E4"/>
<stop offset="1" stop-color="#1561BE"/>
</linearGradient>
<linearGradient id="paint2_linear_51_1266" x1="15.4531" y1="72.415" x2="20.2028" y2="35.7744" gradientUnits="userSpaceOnUse">
<stop stop-color="#1175E4"/>
<stop offset="1" stop-color="#1561BE"/>
</linearGradient>
<linearGradient id="paint3_linear_51_1266" x1="19.1598" y1="38.0386" x2="48.405" y2="15.5192" gradientUnits="userSpaceOnUse">
<stop stop-color="#1175E4"/>
<stop offset="1" stop-color="#1561BE"/>
</linearGradient>
<linearGradient id="paint4_linear_51_1266" x1="46.0514" y1="16.3569" x2="82.6636" y2="21.0951" gradientUnits="userSpaceOnUse">
<stop stop-color="#1175E4"/>
<stop offset="1" stop-color="#1561BE"/>
</linearGradient>
<linearGradient id="paint5_linear_51_1266" x1="80.4229" y1="20.0465" x2="102.97" y2="49.2798" gradientUnits="userSpaceOnUse">
<stop stop-color="#1175E4"/>
<stop offset="1" stop-color="#1561BE"/>
</linearGradient>
<linearGradient id="paint6_linear_51_1266" x1="102.084" y1="46.9833" x2="97.334" y2="83.6239" gradientUnits="userSpaceOnUse">
<stop stop-color="#1175E4"/>
<stop offset="1" stop-color="#1561BE"/>
</linearGradient>
<linearGradient id="paint7_linear_51_1266" x1="98.3714" y1="81.372" x2="69.1263" y2="103.891" gradientUnits="userSpaceOnUse">
<stop stop-color="#1175E4"/>
<stop offset="1" stop-color="#1561BE"/>
</linearGradient>
<linearGradient id="paint8_linear_51_1266" x1="75.0101" y1="103.697" x2="38.4154" y2="98.9608" gradientUnits="userSpaceOnUse">
<stop stop-color="#1175E4"/>
<stop offset="1" stop-color="#1561BE"/>
</linearGradient>
<linearGradient id="paint9_linear_51_1266" x1="40.9529" y1="100.42" x2="18.4053" y2="71.1866" gradientUnits="userSpaceOnUse">
<stop stop-color="#1175E4"/>
<stop offset="1" stop-color="#1561BE"/>
</linearGradient>
<linearGradient id="paint10_linear_51_1266" x1="19.1791" y1="73.9674" x2="23.9265" y2="37.3445" gradientUnits="userSpaceOnUse">
<stop stop-color="#1175E4"/>
<stop offset="1" stop-color="#1561BE"/>
</linearGradient>
<linearGradient id="paint11_linear_51_1266" x1="22.4733" y1="39.8788" x2="51.7184" y2="17.3594" gradientUnits="userSpaceOnUse">
<stop stop-color="#1175E4"/>
<stop offset="1" stop-color="#1561BE"/>
</linearGradient>
<linearGradient id="paint12_linear_51_1266" x1="48.8856" y1="18.0817" x2="85.4802" y2="22.8176" gradientUnits="userSpaceOnUse">
<stop stop-color="#1175E4"/>
<stop offset="1" stop-color="#1561BE"/>
</linearGradient>
<linearGradient id="paint13_linear_51_1266" x1="82.9442" y1="21.3648" x2="105.492" y2="50.598" gradientUnits="userSpaceOnUse">
<stop stop-color="#1175E4"/>
<stop offset="1" stop-color="#1561BE"/>
</linearGradient>
<linearGradient id="paint14_linear_51_1266" x1="104.723" y1="47.8034" x2="99.9758" y2="84.4264" gradientUnits="userSpaceOnUse">
<stop stop-color="#1175E4"/>
<stop offset="1" stop-color="#1561BE"/>
</linearGradient>
<linearGradient id="paint15_linear_51_1266" x1="101.428" y1="81.9042" x2="72.1825" y2="104.424" gradientUnits="userSpaceOnUse">
<stop stop-color="#1175E4"/>
<stop offset="1" stop-color="#1561BE"/>
</linearGradient>
<clipPath id="clip0_51_1266">
<rect width="121" height="120" fill="white"/>
</clipPath>
</defs>
</svg>
