<svg width="470" height="530" viewBox="0 0 470 530" fill="none" xmlns="http://www.w3.org/2000/svg">
<path d="M385.5 0L244.833 130.714L246.253 95.462C247.396 66.2199 224.69 41.5408 195.493 40.3444L20.0591 33.2217C13.0106 32.9434 6.24061 34.0842 0 36.31V530H102L4.40186 422.606L179.808 429.728C209.005 430.925 233.633 408.166 234.775 378.896L241.824 205.892L360.758 335.158C380.594 356.693 414.081 358.028 435.561 338.191L469.618 303.022V0H421.5H385.5Z" fill="#C6DCF5"/>
<path d="M418.134 0.691471L242.962 161.334L244.372 126.589C245.506 97.768 222.974 73.4441 193.999 72.2649L19.9059 65.2446C12.9112 64.9704 6.19294 66.0948 0 68.2886V530H78.5L4.36824 449.026L178.434 456.046C207.408 457.226 231.848 434.794 232.982 405.945L239.976 235.43L358.002 362.836C377.686 384.062 410.918 385.378 432.234 365.826L470 331.163V0.499512L418.134 0.664048V0.691471Z" fill="url(#paint0_linear_783_5679)"/>
<defs>
<linearGradient id="paint0_linear_783_5679" x1="174.011" y1="-1272.68" x2="293.804" y2="1798.93" gradientUnits="userSpaceOnUse">
<stop stop-color="#1175E3"/>
<stop offset="1" stop-color="#1561BD"/>
</linearGradient>
</defs>
</svg>
