<svg width="397" height="408" viewBox="0 0 397 408" fill="none" xmlns="http://www.w3.org/2000/svg">
<path fill-rule="evenodd" clip-rule="evenodd" d="M0.0742188 407.123L0.0742188 0.496094H335.734C341.86 7.64099 347.773 15.0645 353.463 22.7646C381.406 56.7753 395.244 93.6604 396.38 130.64L396.389 130.857C396.554 134.478 396.539 138.102 396.348 141.722C396.337 141.974 396.325 142.226 396.312 142.478C394.526 184.83 376.266 226.917 343.642 264.56C263.767 366.332 131.378 411.775 6.00406 407.18C4.03253 407.153 2.05559 407.135 0.0742188 407.123Z" fill="#FFB4CC"/>
<path fill-rule="evenodd" clip-rule="evenodd" d="M0.0742188 0.496094L0.0742188 348.865C17.8326 350.74 36.9173 350.53 56.0038 350.321C64.9761 350.222 73.9488 350.124 82.7843 350.242C183.504 353.937 289.937 317.384 354.077 235.686C405.59 176.261 412.505 102.954 361.994 41.4312C350.941 26.483 338.84 12.8303 325.803 0.496094H0.0742188Z" fill="#FFEFF4"/>
<path fill-rule="evenodd" clip-rule="evenodd" d="M0.0742188 288.874L0.0742188 0.0780945H307.136C329.799 15.8234 350.042 35.4067 367.292 58.7148C410.085 110.849 404.173 172.871 360.577 223.208C306.158 292.42 216.062 323.381 130.775 320.285C123.239 320.184 115.589 320.269 107.944 320.354C70.5553 320.772 33.275 321.187 9.81096 299.711H9.91121L8.70857 298.613C5.75387 295.78 2.88062 292.5 0.0742188 288.874Z" fill="#FF246B"/>
</svg>
