<svg width="358" height="162" viewBox="0 0 358 162" fill="none" xmlns="http://www.w3.org/2000/svg">
<g opacity="0.46" filter="url(#filter0_d_51_1268)">
<path d="M22.4174 38.02C15.6935 45.334 17.2152 57.8596 17.0559 69.343C16.242 91.444 24.293 114.782 42.3238 128.862C55.4355 140.169 71.5906 141.688 85.1623 130.593C102.415 117.909 111.828 98.9346 112.713 77.1516C113.049 71.304 113.014 65.1736 112.978 59.326C112.925 50.8813 112.89 42.631 106.378 36.96C104.892 35.688 104.502 35.2817 102.609 34.0273C91.9039 28.109 79.6062 19.735 67.6978 17.1733C59.6821 16.0957 52.6751 20.212 43.8986 24.8407C36.5554 28.9217 27.3719 32.879 22.7359 37.702L22.4351 38.02H22.4174Z" fill="#FF246B" fill-opacity="0.74"/>
</g>
<g opacity="0.79" filter="url(#filter1_d_51_1268)">
<path d="M30.7853 57.7005C25.3885 63.5835 26.6094 73.6535 26.4855 82.8755C25.8309 100.63 32.3071 119.392 46.7812 130.699C57.3095 139.78 70.2973 140.999 81.1971 132.095C95.052 121.901 102.625 106.655 103.333 89.1472C103.598 84.4478 103.581 79.5188 103.545 74.8195C103.51 68.0355 103.475 61.4105 98.237 56.8525C97.0338 55.8278 96.733 55.4922 95.2112 54.4852C86.6117 49.7328 76.7204 43.0018 67.1653 40.9348C60.7245 40.0692 55.0977 43.3728 48.0375 47.1005C42.1452 50.3865 34.7489 53.5665 31.0331 57.4355L30.803 57.6828L30.7853 57.7005Z" fill="white"/>
</g>
<g filter="url(#filter2_d_51_1268)">
<path d="M36.0223 70.014C31.4394 74.996 32.4833 83.5114 32.3772 91.3377C31.8286 106.372 37.314 122.254 49.5763 131.847C58.4943 139.532 69.4827 140.575 78.7192 133.031C90.4507 124.392 96.8562 111.495 97.4755 96.6554C97.7055 92.6804 97.6878 88.4934 97.6524 84.536C97.617 78.7944 97.5993 73.1764 93.158 69.325C92.1494 68.4594 91.884 68.1767 90.5923 67.3287C83.3198 63.3007 74.9326 57.5944 66.8285 55.863C61.3786 55.121 56.601 57.93 50.6203 61.0747C45.6304 63.8484 39.3665 66.5514 36.2169 69.8197L36.0223 70.0317V70.014Z" fill="#FF246B"/>
</g>
<path d="M156.072 100.038C153.128 100.038 150.483 99.5261 148.136 98.5021C145.832 97.4355 144.019 95.9848 142.696 94.1501C141.373 92.2728 140.691 90.1181 140.648 87.6861H146.856C147.069 89.7768 147.923 91.5475 149.416 92.9981C150.952 94.4061 153.171 95.1101 156.072 95.1101C158.845 95.1101 161.021 94.4275 162.6 93.0621C164.221 91.6541 165.032 89.8621 165.032 87.6861C165.032 85.9795 164.563 84.5928 163.624 83.5261C162.685 82.4595 161.512 81.6488 160.104 81.0941C158.696 80.5395 156.797 79.9421 154.408 79.3021C151.464 78.5341 149.096 77.7661 147.304 76.9981C145.555 76.2301 144.04 75.0355 142.76 73.4141C141.523 71.7501 140.904 69.5315 140.904 66.7581C140.904 64.3261 141.523 62.1715 142.76 60.2941C143.997 58.4168 145.725 56.9661 147.944 55.9421C150.205 54.9181 152.787 54.4061 155.688 54.4061C159.869 54.4061 163.283 55.4515 165.928 57.5421C168.616 59.6328 170.131 62.4061 170.472 65.8621H164.072C163.859 64.1555 162.963 62.6621 161.384 61.3821C159.805 60.0595 157.715 59.3981 155.112 59.3981C152.68 59.3981 150.696 60.0381 149.16 61.3181C147.624 62.5555 146.856 64.3048 146.856 66.5661C146.856 68.1875 147.304 69.5101 148.2 70.5341C149.139 71.5581 150.269 72.3475 151.592 72.9021C152.957 73.4141 154.856 74.0115 157.288 74.6941C160.232 75.5048 162.6 76.3155 164.392 77.1261C166.184 77.8941 167.72 79.1101 169 80.7741C170.28 82.3955 170.92 84.6141 170.92 87.4301C170.92 89.6061 170.344 91.6541 169.192 93.5741C168.04 95.4941 166.333 97.0515 164.072 98.2461C161.811 99.4408 159.144 100.038 156.072 100.038ZM211.491 80.7101C211.491 81.8195 211.427 82.9928 211.299 84.2301H183.267C183.48 87.6861 184.653 90.3955 186.787 92.3581C188.963 94.2781 191.587 95.2381 194.659 95.2381C197.176 95.2381 199.267 94.6621 200.931 93.5101C202.637 92.3155 203.832 90.7368 204.515 88.7741H210.787C209.848 92.1448 207.971 94.8968 205.155 97.0301C202.339 99.1208 198.84 100.166 194.659 100.166C191.331 100.166 188.344 99.4195 185.699 97.9261C183.096 96.4328 181.048 94.3208 179.555 91.5901C178.061 88.8168 177.315 85.6168 177.315 81.9901C177.315 78.3635 178.04 75.1848 179.491 72.4541C180.941 69.7235 182.968 67.6328 185.571 66.1821C188.216 64.6888 191.245 63.9421 194.659 63.9421C197.987 63.9421 200.931 64.6675 203.491 66.1181C206.051 67.5688 208.013 69.5741 209.379 72.1341C210.787 74.6515 211.491 77.5101 211.491 80.7101ZM205.475 79.4941C205.475 77.2755 204.984 75.3768 204.003 73.7981C203.021 72.1768 201.677 70.9608 199.971 70.1501C198.307 69.2968 196.451 68.8701 194.403 68.8701C191.459 68.8701 188.941 69.8088 186.851 71.6861C184.803 73.5635 183.629 76.1661 183.331 79.4941H205.475ZM217.002 81.9901C217.002 78.3635 217.727 75.2061 219.178 72.5181C220.629 69.7875 222.634 67.6755 225.194 66.1821C227.797 64.6888 230.762 63.9421 234.09 63.9421C238.399 63.9421 241.941 64.9875 244.714 67.0781C247.53 69.1688 249.386 72.0701 250.282 75.7821H244.01C243.413 73.6488 242.239 71.9635 240.49 70.7261C238.783 69.4888 236.65 68.8701 234.09 68.8701C230.762 68.8701 228.074 70.0221 226.026 72.3261C223.978 74.5875 222.954 77.8088 222.954 81.9901C222.954 86.2141 223.978 89.4781 226.026 91.7821C228.074 94.0861 230.762 95.2381 234.09 95.2381C236.65 95.2381 238.783 94.6408 240.49 93.4461C242.197 92.2515 243.37 90.5448 244.01 88.3261H250.282C249.343 91.9101 247.466 94.7901 244.65 96.9661C241.834 99.0995 238.314 100.166 234.09 100.166C230.762 100.166 227.797 99.4195 225.194 97.9261C222.634 96.4328 220.629 94.3208 219.178 91.5901C217.727 88.8595 217.002 85.6595 217.002 81.9901ZM289.157 64.5181V99.5901H283.333V94.4061C282.224 96.1981 280.666 97.6061 278.661 98.6301C276.698 99.6115 274.522 100.102 272.133 100.102C269.402 100.102 266.949 99.5475 264.773 98.4381C262.597 97.2861 260.869 95.5795 259.589 93.3181C258.352 91.0568 257.733 88.3048 257.733 85.0621V64.5181H263.493V84.2941C263.493 87.7501 264.368 90.4168 266.117 92.2941C267.866 94.1288 270.256 95.0461 273.285 95.0461C276.4 95.0461 278.853 94.0861 280.645 92.1661C282.437 90.2461 283.333 87.4515 283.333 83.7821V64.5181H289.157ZM304.815 70.2141C305.839 68.2088 307.289 66.6515 309.167 65.5421C311.087 64.4328 313.412 63.8781 316.143 63.8781V69.8941H314.607C308.079 69.8941 304.815 73.4355 304.815 80.5181V99.5901H298.991V64.5181H304.815V70.2141ZM354.866 80.7101C354.866 81.8195 354.802 82.9928 354.674 84.2301H326.642C326.855 87.6861 328.028 90.3955 330.162 92.3581C332.338 94.2781 334.962 95.2381 338.034 95.2381C340.551 95.2381 342.642 94.6621 344.306 93.5101C346.012 92.3155 347.207 90.7368 347.89 88.7741H354.162C353.223 92.1448 351.346 94.8968 348.53 97.0301C345.714 99.1208 342.215 100.166 338.034 100.166C334.706 100.166 331.719 99.4195 329.074 97.9261C326.471 96.4328 324.423 94.3208 322.93 91.5901C321.436 88.8168 320.69 85.6168 320.69 81.9901C320.69 78.3635 321.415 75.1848 322.866 72.4541C324.316 69.7235 326.343 67.6328 328.946 66.1821C331.591 64.6888 334.62 63.9421 338.034 63.9421C341.362 63.9421 344.306 64.6675 346.866 66.1181C349.426 67.5688 351.388 69.5741 352.754 72.1341C354.162 74.6515 354.866 77.5101 354.866 80.7101ZM348.85 79.4941C348.85 77.2755 348.359 75.3768 347.378 73.7981C346.396 72.1768 345.052 70.9608 343.346 70.1501C341.682 69.2968 339.826 68.8701 337.778 68.8701C334.834 68.8701 332.316 69.8088 330.226 71.6861C328.178 73.5635 327.004 76.1661 326.706 79.4941H348.85Z" fill="#020C17"/>
<defs>
<filter id="filter0_d_51_1268" x="0" y="0" width="136" height="161.172" filterUnits="userSpaceOnUse" color-interpolation-filters="sRGB">
<feFlood flood-opacity="0" result="BackgroundImageFix"/>
<feColorMatrix in="SourceAlpha" type="matrix" values="0 0 0 0 0 0 0 0 0 0 0 0 0 0 0 0 0 0 127 0" result="hardAlpha"/>
<feOffset dx="3" dy="3"/>
<feGaussianBlur stdDeviation="10"/>
<feColorMatrix type="matrix" values="0 0 0 0 1 0 0 0 0 1 0 0 0 0 1 0 0 0 0.85 0"/>
<feBlend mode="normal" in2="BackgroundImageFix" result="effect1_dropShadow_51_1268"/>
<feBlend mode="normal" in="SourceGraphic" in2="effect1_dropShadow_51_1268" result="shape"/>
</filter>
<filter id="filter1_d_51_1268" x="9.44055" y="23.7955" width="117.125" height="137.381" filterUnits="userSpaceOnUse" color-interpolation-filters="sRGB">
<feFlood flood-opacity="0" result="BackgroundImageFix"/>
<feColorMatrix in="SourceAlpha" type="matrix" values="0 0 0 0 0 0 0 0 0 0 0 0 0 0 0 0 0 0 127 0" result="hardAlpha"/>
<feOffset dx="3" dy="3"/>
<feGaussianBlur stdDeviation="10"/>
<feColorMatrix type="matrix" values="0 0 0 0 1 0 0 0 0 1 0 0 0 0 1 0 0 0 0.85 0"/>
<feBlend mode="normal" in2="BackgroundImageFix" result="effect1_dropShadow_51_1268"/>
<feBlend mode="normal" in="SourceGraphic" in2="effect1_dropShadow_51_1268" result="shape"/>
</filter>
<filter id="filter2_d_51_1268" x="15.3398" y="38.7428" width="105.334" height="122.438" filterUnits="userSpaceOnUse" color-interpolation-filters="sRGB">
<feFlood flood-opacity="0" result="BackgroundImageFix"/>
<feColorMatrix in="SourceAlpha" type="matrix" values="0 0 0 0 0 0 0 0 0 0 0 0 0 0 0 0 0 0 127 0" result="hardAlpha"/>
<feOffset dx="3" dy="3"/>
<feGaussianBlur stdDeviation="10"/>
<feColorMatrix type="matrix" values="0 0 0 0 1 0 0 0 0 1 0 0 0 0 1 0 0 0 0.85 0"/>
<feBlend mode="normal" in2="BackgroundImageFix" result="effect1_dropShadow_51_1268"/>
<feBlend mode="normal" in="SourceGraphic" in2="effect1_dropShadow_51_1268" result="shape"/>
</filter>
</defs>
</svg>
