<svg width="491" height="96" viewBox="0 0 491 96" fill="none" xmlns="http://www.w3.org/2000/svg">
<g clip-path="url(#clip0_51_1308)">
<path opacity="0.24" d="M107.406 74.0903C93.4659 68.0989 80.1988 52.2495 65.1627 49.3974C47.5117 46.4113 40.109 95.3568 31.2066 60.0976C27.3034 45.6073 23.3809 25.1448 13.3248 15.325C5.90291 8.20428 -1.5959 10.4439 0.307642 19.2874C1.71127 26.2933 8.78706 36.9361 14.2862 47.8852C19.4008 57.7623 22.458 69.1708 26.4189 79.6605C36.648 106.593 45.3774 88.0446 57.1255 75.4302C60.2404 72.4249 63.3938 70.817 67.3547 70.8553C78.699 71.6401 89.1012 81.4981 101.138 82.7423C110.175 84.1206 128.653 83.91 107.925 74.3583L107.406 74.0711V74.0903Z" fill="#133258"/>
<path opacity="0.24" d="M111.021 65.4955C97.0807 59.5042 83.8136 43.6548 68.7775 40.8027C51.1264 37.8165 43.7238 86.7621 34.8213 51.5029C30.9181 37.0126 26.9957 16.55 16.9396 6.7303C9.5369 -0.390443 2.01887 1.84915 3.92241 10.6926C5.32603 17.6985 12.4018 28.3414 17.901 39.2905C23.0155 49.1676 26.0727 60.5761 30.0336 71.0658C40.2628 97.9983 48.9922 79.4499 60.7403 66.8355C63.8552 63.8302 67.0085 62.2223 70.9694 62.2606C82.3138 63.0454 92.716 72.9034 104.753 74.1476C113.79 75.5258 132.267 75.3153 111.54 65.7635L111.021 65.4764V65.4955Z" fill="#133258"/>
<path d="M107.406 65.4954C93.4656 59.504 80.1984 43.6547 65.1624 40.8025C47.5113 37.8164 40.1087 86.7619 31.2062 51.5028C27.303 37.0125 23.3806 16.5499 13.3052 6.74931C5.90256 -0.390576 -1.59624 1.84901 0.307299 10.6925C1.71092 17.6984 8.78672 28.3412 14.2858 39.2903C19.4004 49.1675 22.4576 60.576 26.4185 71.0657C36.6477 97.9982 45.3771 79.4498 57.1252 66.8353C60.2401 63.8301 63.3934 62.2222 67.3543 62.2605C78.6987 63.0453 89.1009 72.9033 101.137 74.1475C110.174 75.5257 128.652 75.3151 107.925 65.7634L107.406 65.4763V65.4954Z" fill="#133258"/>
</g>
<path d="M164.072 70.448C161.128 70.448 158.483 69.936 156.136 68.912C153.832 67.8453 152.019 66.3947 150.696 64.56C149.373 62.6827 148.691 60.528 148.648 58.096H154.856C155.069 60.1867 155.923 61.9573 157.416 63.408C158.952 64.816 161.171 65.52 164.072 65.52C166.845 65.52 169.021 64.8373 170.6 63.472C172.221 62.064 173.032 60.272 173.032 58.096C173.032 56.3893 172.563 55.0027 171.624 53.936C170.685 52.8693 169.512 52.0587 168.104 51.504C166.696 50.9493 164.797 50.352 162.408 49.712C159.464 48.944 157.096 48.176 155.304 47.408C153.555 46.64 152.04 45.4453 150.76 43.824C149.523 42.16 148.904 39.9413 148.904 37.168C148.904 34.736 149.523 32.5813 150.76 30.704C151.997 28.8267 153.725 27.376 155.944 26.352C158.205 25.328 160.787 24.816 163.688 24.816C167.869 24.816 171.283 25.8613 173.928 27.952C176.616 30.0427 178.131 32.816 178.472 36.272H172.072C171.859 34.5653 170.963 33.072 169.384 31.792C167.805 30.4693 165.715 29.808 163.112 29.808C160.68 29.808 158.696 30.448 157.16 31.728C155.624 32.9653 154.856 34.7147 154.856 36.976C154.856 38.5973 155.304 39.92 156.2 40.944C157.139 41.968 158.269 42.7573 159.592 43.312C160.957 43.824 162.856 44.4213 165.288 45.104C168.232 45.9147 170.6 46.7253 172.392 47.536C174.184 48.304 175.72 49.52 177 51.184C178.28 52.8053 178.92 55.024 178.92 57.84C178.92 60.016 178.344 62.064 177.192 63.984C176.04 65.904 174.333 67.4613 172.072 68.656C169.811 69.8507 167.144 70.448 164.072 70.448ZM194.595 39.728V60.4C194.595 62.1067 194.957 63.3227 195.683 64.048C196.408 64.7307 197.667 65.072 199.458 65.072H203.747V70H198.499C195.256 70 192.824 69.2533 191.203 67.76C189.581 66.2667 188.771 63.8133 188.771 60.4V39.728H184.227V34.928H188.771V26.096H194.595V34.928H203.747V39.728H194.595ZM216.627 40.624C217.651 38.6187 219.102 37.0613 220.979 35.952C222.899 34.8427 225.224 34.288 227.955 34.288V40.304H226.419C219.891 40.304 216.627 43.8453 216.627 50.928V70H210.803V34.928H216.627V40.624ZM266.678 51.12C266.678 52.2293 266.614 53.4027 266.486 54.64H238.454C238.667 58.096 239.841 60.8053 241.974 62.768C244.15 64.688 246.774 65.648 249.846 65.648C252.363 65.648 254.454 65.072 256.118 63.92C257.825 62.7253 259.019 61.1467 259.702 59.184H265.974C265.035 62.5547 263.158 65.3067 260.342 67.44C257.526 69.5307 254.027 70.576 249.846 70.576C246.518 70.576 243.531 69.8293 240.886 68.336C238.283 66.8427 236.235 64.7307 234.742 62C233.249 59.2267 232.502 56.0267 232.502 52.4C232.502 48.7733 233.227 45.5947 234.678 42.864C236.129 40.1333 238.155 38.0427 240.758 36.592C243.403 35.0987 246.433 34.352 249.846 34.352C253.174 34.352 256.118 35.0773 258.678 36.528C261.238 37.9787 263.201 39.984 264.566 42.544C265.974 45.0613 266.678 47.92 266.678 51.12ZM260.662 49.904C260.662 47.6853 260.171 45.7867 259.19 44.208C258.209 42.5867 256.865 41.3707 255.158 40.56C253.494 39.7067 251.638 39.28 249.59 39.28C246.646 39.28 244.129 40.2187 242.038 42.096C239.99 43.9733 238.817 46.576 238.518 49.904H260.662ZM272.19 52.336C272.19 48.752 272.915 45.616 274.366 42.928C275.816 40.1973 277.8 38.0853 280.318 36.592C282.878 35.0987 285.715 34.352 288.83 34.352C291.902 34.352 294.568 35.0133 296.83 36.336C299.091 37.6587 300.776 39.3227 301.886 41.328V34.928H307.774V70H301.886V63.472C300.734 65.52 299.006 67.2267 296.702 68.592C294.44 69.9147 291.795 70.576 288.766 70.576C285.651 70.576 282.835 69.808 280.318 68.272C277.8 66.736 275.816 64.5813 274.366 61.808C272.915 59.0347 272.19 55.8773 272.19 52.336ZM301.886 52.4C301.886 49.7547 301.352 47.4507 300.286 45.488C299.219 43.5253 297.768 42.032 295.934 41.008C294.142 39.9413 292.158 39.408 289.982 39.408C287.806 39.408 285.822 39.92 284.03 40.944C282.238 41.968 280.808 43.4613 279.742 45.424C278.675 47.3867 278.142 49.6907 278.142 52.336C278.142 55.024 278.675 57.3707 279.742 59.376C280.808 61.3387 282.238 62.8533 284.03 63.92C285.822 64.944 287.806 65.456 289.982 65.456C292.158 65.456 294.142 64.944 295.934 63.92C297.768 62.8533 299.219 61.3387 300.286 59.376C301.352 57.3707 301.886 55.0453 301.886 52.4ZM359.792 34.288C362.522 34.288 364.954 34.864 367.088 36.016C369.221 37.1253 370.906 38.8107 372.144 41.072C373.381 43.3333 374 46.0853 374 49.328V70H368.24V50.16C368.24 46.6613 367.365 43.9947 365.616 42.16C363.909 40.2827 361.584 39.344 358.64 39.344C355.61 39.344 353.2 40.3253 351.408 42.288C349.616 44.208 348.72 47.0027 348.72 50.672V70H342.96V50.16C342.96 46.6613 342.085 43.9947 340.336 42.16C338.629 40.2827 336.304 39.344 333.36 39.344C330.33 39.344 327.92 40.3253 326.128 42.288C324.336 44.208 323.44 47.0027 323.44 50.672V70H317.616V34.928H323.44V39.984C324.592 38.1493 326.128 36.7413 328.048 35.76C330.01 34.7787 332.165 34.288 334.512 34.288C337.456 34.288 340.058 34.9493 342.32 36.272C344.581 37.5947 346.266 39.536 347.376 42.096C348.357 39.6213 349.978 37.7013 352.24 36.336C354.501 34.9707 357.018 34.288 359.792 34.288ZM389.377 22.64V70H383.553V22.64H389.377ZM402.311 29.232C401.202 29.232 400.263 28.848 399.495 28.08C398.727 27.312 398.343 26.3733 398.343 25.264C398.343 24.1547 398.727 23.216 399.495 22.448C400.263 21.68 401.202 21.296 402.311 21.296C403.378 21.296 404.274 21.68 404.999 22.448C405.767 23.216 406.151 24.1547 406.151 25.264C406.151 26.3733 405.767 27.312 404.999 28.08C404.274 28.848 403.378 29.232 402.311 29.232ZM405.127 34.928V70H399.303V34.928H405.127ZM432.141 34.288C436.408 34.288 439.864 35.5893 442.509 38.192C445.154 40.752 446.477 44.464 446.477 49.328V70H440.717V50.16C440.717 46.6613 439.842 43.9947 438.093 42.16C436.344 40.2827 433.954 39.344 430.925 39.344C427.853 39.344 425.4 40.304 423.565 42.224C421.773 44.144 420.877 46.9387 420.877 50.608V70H415.053V34.928H420.877V39.92C422.029 38.128 423.586 36.7413 425.549 35.76C427.554 34.7787 429.752 34.288 432.141 34.288ZM487.991 51.12C487.991 52.2293 487.927 53.4027 487.799 54.64H459.767C459.98 58.096 461.153 60.8053 463.287 62.768C465.463 64.688 468.087 65.648 471.159 65.648C473.676 65.648 475.767 65.072 477.431 63.92C479.137 62.7253 480.332 61.1467 481.015 59.184H487.287C486.348 62.5547 484.471 65.3067 481.655 67.44C478.839 69.5307 475.34 70.576 471.159 70.576C467.831 70.576 464.844 69.8293 462.199 68.336C459.596 66.8427 457.548 64.7307 456.055 62C454.561 59.2267 453.815 56.0267 453.815 52.4C453.815 48.7733 454.54 45.5947 455.991 42.864C457.441 40.1333 459.468 38.0427 462.071 36.592C464.716 35.0987 467.745 34.352 471.159 34.352C474.487 34.352 477.431 35.0773 479.991 36.528C482.551 37.9787 484.513 39.984 485.879 42.544C487.287 45.0613 487.991 47.92 487.991 51.12ZM481.975 49.904C481.975 47.6853 481.484 45.7867 480.503 44.208C479.521 42.5867 478.177 41.3707 476.471 40.56C474.807 39.7067 472.951 39.28 470.903 39.28C467.959 39.28 465.441 40.2187 463.351 42.096C461.303 43.9733 460.129 46.576 459.831 49.904H481.975Z" fill="#020C17"/>
<defs>
<clipPath id="clip0_51_1308">
<rect width="121" height="91" fill="white" transform="translate(0 2.5)"/>
</clipPath>
</defs>
</svg>
