<svg width="470" height="530" viewBox="0 0 470 530" fill="none" xmlns="http://www.w3.org/2000/svg">
<path d="M0.175781 240.146C0.563356 375.068 0.191427 530 0.191427 530H75.2916C103.308 496.813 141.392 449.318 171.567 417.619C222.395 369.643 273.804 343.975 338.446 344.608C382.989 347.638 426.647 359.039 470 374.903V63.1141C415.463 34.5819 359.873 12.7146 302.706 2.11137C174.28 -19.1501 79.1027 124.447 0.203465 240.174L0.175781 240.146Z" fill="#C5CDD6"/>
<path d="M0.0390625 189.802C0.343586 342.047 0.19161 530 0.19161 530H17.7821C83.919 470.292 153.159 371.24 230.508 287.847C281.336 238.604 332.745 212.275 397.359 212.909C421.804 214.616 445.972 218.912 469.946 225.137L469.818 0.34613H131.889C82.1407 66.0859 39.6825 139.871 0.0667464 189.802H0.0390625Z" fill="#9AA8B8"/>
<path d="M73.1267 0.34613C46.8546 35.0199 23.2799 70.8021 0.191444 105.476C0.16376 222.552 -0.22461 406.35 0.190649 488.449C53.6483 430.145 110.691 353.614 171.789 287.847C222.673 238.604 274.165 212.275 338.862 212.909C383.461 215.993 426.409 227.37 469.818 243.646L469.818 0.34613H73.1267Z" fill="#133258"/>
</svg>
