<svg width="1120" height="132" viewBox="0 0 1120 132" fill="none" xmlns="http://www.w3.org/2000/svg">
<path d="M623.294 47.9872C629.496 47.9872 635.009 49.316 639.834 51.9737C644.756 54.6315 648.596 58.5688 651.353 63.7858C654.208 69.0028 655.635 75.3026 655.635 82.6851V130.672H638.947V85.1952C638.947 77.9111 637.126 72.3496 633.483 68.5106C629.841 64.5733 624.869 62.6046 618.568 62.6046C612.267 62.6046 607.246 64.5733 603.505 68.5106C599.862 72.3496 598.04 77.9111 598.04 85.1952V130.672H581.205V21.41H598.04V58.7657C600.896 55.3205 604.489 52.6628 608.821 50.7925C613.251 48.9223 618.076 47.9872 623.294 47.9872Z" fill="#1175E4"/>
<path d="M545.9 63.0469V108.08C545.9 111.132 546.589 113.347 547.967 114.725C549.444 116.004 551.905 116.644 555.351 116.644H565.689V130.671H552.398C544.817 130.671 539.008 128.899 534.972 125.356C530.935 121.812 528.917 116.054 528.917 108.08V63.0469H519.318V49.3154H528.917V29.0872H545.9V49.3154H565.689V63.0469H545.9Z" fill="#1175E4"/>
<path d="M504.153 21.41V130.672H487.318V21.41H504.153Z" fill="#1175E4"/>
<path d="M381.619 89.6236C381.619 81.4536 383.293 74.2187 386.64 67.919C390.086 61.6192 394.713 56.7467 400.522 53.3015C406.429 49.7579 412.927 47.9861 420.016 47.9861C426.415 47.9861 431.978 49.2658 436.703 51.825C441.528 54.2859 445.367 57.3866 448.222 61.127V49.315H465.206V130.671H448.222V118.563C445.367 122.402 441.478 125.601 436.556 128.16C431.633 130.72 426.021 131.999 419.72 131.999C412.73 131.999 406.331 130.228 400.522 126.684C394.713 123.042 390.086 118.022 386.64 111.624C383.293 105.127 381.619 97.7936 381.619 89.6236ZM448.222 89.9189C448.222 84.3082 447.041 79.4357 444.678 75.3015C442.414 71.1673 439.411 68.0174 435.67 65.8519C431.928 63.6863 427.892 62.6035 423.56 62.6035C419.228 62.6035 415.191 63.6863 411.45 65.8519C407.709 67.919 404.657 71.0196 402.294 75.1539C400.03 79.1897 398.898 84.0129 398.898 89.6236C398.898 95.2344 400.03 100.156 402.294 104.389C404.657 108.621 407.709 111.87 411.45 114.134C415.29 116.299 419.327 117.382 423.56 117.382C427.892 117.382 431.928 116.299 435.67 114.134C439.411 111.968 442.414 108.818 444.678 104.684C447.041 100.451 448.222 95.5297 448.222 89.9189Z" fill="#1175E4"/>
<path d="M370.662 87.9995C370.662 91.0509 370.465 93.8071 370.071 96.2679H307.898C308.39 102.765 310.802 107.982 315.134 111.919C319.466 115.856 324.783 117.825 331.084 117.825C340.141 117.825 346.541 114.035 350.282 106.456H368.447C365.985 113.937 361.506 120.089 355.008 124.912C348.608 129.637 340.634 131.999 331.084 131.999C323.306 131.999 316.316 130.277 310.113 126.832C304.009 123.288 299.185 118.366 295.641 112.067C292.195 105.668 290.472 98.2858 290.472 89.9189C290.472 81.5521 292.146 74.2187 295.493 67.919C298.939 61.5208 303.714 56.5991 309.818 53.1539C316.02 49.7087 323.109 47.9861 331.084 47.9861C338.763 47.9861 345.605 49.6595 351.611 53.0062C357.617 56.353 362.293 61.0778 365.641 67.1807C368.988 73.1852 370.662 80.1248 370.662 87.9995ZM353.088 82.684C352.989 76.4827 350.774 71.5118 346.442 67.7713C342.11 64.0308 336.745 62.1606 330.345 62.1606C324.537 62.1606 319.565 64.0308 315.43 67.7713C311.295 71.4134 308.833 76.3843 308.046 82.684H353.088Z" fill="#1175E4"/>
<path d="M242.269 47.9872C248.472 47.9872 253.985 49.316 258.809 51.9737C263.732 54.6315 267.571 58.5688 270.328 63.7858C273.183 69.0028 274.611 75.3026 274.611 82.6851V130.672H257.923V85.1952C257.923 77.9111 256.102 72.3496 252.459 68.5106C248.816 64.5733 243.844 62.6046 237.543 62.6046C231.242 62.6046 226.221 64.5733 222.48 68.5106C218.837 72.3496 217.016 77.9111 217.016 85.1952V130.672H200.18V21.41H217.016V58.7657C219.871 55.3205 223.465 52.6628 227.796 50.7925C232.227 48.9223 237.051 47.9872 242.269 47.9872Z" fill="#1175E4"/>
<path d="M162.124 0V32.4832H127.42V130.671H86.4385V32.4832H52.1031V0H162.124Z" fill="#1175E4"/>
<path d="M40.981 0V130.671H0V0H40.981Z" fill="#1175E4"/>
<path d="M770.586 10.8029L761.543 60.8533C761.543 60.8533 761.543 60.8533 761.542 60.8533L776.895 34.6117C781.962 58.5825 790.829 112.577 792.518 121.355C794.372 130.992 804.702 132 806.728 132C811.795 132 816.73 128.93 817.547 124.326C819.281 114.551 820.358 100.769 828.6 76.6633C836.842 52.5574 855.239 55.9323 861.506 60.8533C881.642 76.6633 937.89 124.326 996.634 124.326C1055.38 124.326 1094.24 58.6552 1120 30.2006C1104.07 39.411 1088.8 53.5014 1071.13 60.8523C983.894 97.1459 950.528 94.6461 886.772 56.6164C877.989 51.3779 843.158 22.6686 825.171 42.1075C811.66 56.7094 811.45 82.0373 806.728 97.1459C801.148 70.2207 791.715 17.2435 790.085 10.8029C788.456 4.36222 784.833 0.137545 780.036 0.00249768C775.24 -0.13255 771.254 5.06683 770.586 10.8029Z" fill="#1175E4"/>
<path d="M623.294 47.9872C629.496 47.9872 635.009 49.316 639.834 51.9737C644.756 54.6315 648.596 58.5688 651.353 63.7858C654.208 69.0028 655.635 75.3026 655.635 82.6851V130.672H638.947V85.1952C638.947 77.9111 637.126 72.3496 633.483 68.5106C629.841 64.5733 624.869 62.6046 618.568 62.6046C612.267 62.6046 607.246 64.5733 603.505 68.5106C599.862 72.3496 598.04 77.9111 598.04 85.1952V130.672H581.205V21.41H598.04V58.7657C600.896 55.3205 604.489 52.6628 608.821 50.7925C613.251 48.9223 618.076 47.9872 623.294 47.9872Z" fill="#1175E4"/>
<path d="M545.9 63.0469V108.08C545.9 111.132 546.589 113.347 547.967 114.725C549.444 116.004 551.905 116.644 555.351 116.644H565.689V130.671H552.398C544.817 130.671 539.008 128.899 534.972 125.356C530.935 121.812 528.917 116.054 528.917 108.08V63.0469H519.318V49.3154H528.917V29.0872H545.9V49.3154H565.689V63.0469H545.9Z" fill="#1175E4"/>
<path d="M504.153 21.41V130.672H487.318V21.41H504.153Z" fill="#1175E4"/>
<path d="M381.619 89.6236C381.619 81.4536 383.293 74.2187 386.64 67.919C390.086 61.6192 394.713 56.7467 400.522 53.3015C406.429 49.7579 412.927 47.9861 420.016 47.9861C426.415 47.9861 431.978 49.2658 436.703 51.825C441.528 54.2859 445.367 57.3866 448.222 61.127V49.315H465.206V130.671H448.222V118.563C445.367 122.402 441.478 125.601 436.556 128.16C431.633 130.72 426.021 131.999 419.72 131.999C412.73 131.999 406.331 130.228 400.522 126.684C394.713 123.042 390.086 118.022 386.64 111.624C383.293 105.127 381.619 97.7936 381.619 89.6236ZM448.222 89.9189C448.222 84.3082 447.041 79.4357 444.678 75.3015C442.414 71.1673 439.411 68.0174 435.67 65.8519C431.928 63.6863 427.892 62.6035 423.56 62.6035C419.228 62.6035 415.191 63.6863 411.45 65.8519C407.709 67.919 404.657 71.0196 402.294 75.1539C400.03 79.1897 398.898 84.0129 398.898 89.6236C398.898 95.2344 400.03 100.156 402.294 104.389C404.657 108.621 407.709 111.87 411.45 114.134C415.29 116.299 419.327 117.382 423.56 117.382C427.892 117.382 431.928 116.299 435.67 114.134C439.411 111.968 442.414 108.818 444.678 104.684C447.041 100.451 448.222 95.5297 448.222 89.9189Z" fill="#1175E4"/>
<path d="M370.662 87.9995C370.662 91.0509 370.465 93.8071 370.071 96.2679H307.898C308.39 102.765 310.802 107.982 315.134 111.919C319.466 115.856 324.783 117.825 331.084 117.825C340.141 117.825 346.541 114.035 350.282 106.456H368.447C365.985 113.937 361.506 120.089 355.008 124.912C348.608 129.637 340.634 131.999 331.084 131.999C323.306 131.999 316.316 130.277 310.113 126.832C304.009 123.288 299.185 118.366 295.641 112.067C292.195 105.668 290.472 98.2858 290.472 89.9189C290.472 81.5521 292.146 74.2187 295.493 67.919C298.939 61.5208 303.714 56.5991 309.818 53.1539C316.02 49.7087 323.109 47.9861 331.084 47.9861C338.763 47.9861 345.605 49.6595 351.611 53.0062C357.617 56.353 362.293 61.0778 365.641 67.1807C368.988 73.1852 370.662 80.1248 370.662 87.9995ZM353.088 82.684C352.989 76.4827 350.774 71.5118 346.442 67.7713C342.11 64.0308 336.745 62.1606 330.345 62.1606C324.537 62.1606 319.565 64.0308 315.43 67.7713C311.295 71.4134 308.833 76.3843 308.046 82.684H353.088Z" fill="#1175E4"/>
<path d="M242.269 47.9872C248.472 47.9872 253.985 49.316 258.809 51.9737C263.732 54.6315 267.571 58.5688 270.328 63.7858C273.183 69.0028 274.611 75.3026 274.611 82.6851V130.672H257.923V85.1952C257.923 77.9111 256.102 72.3496 252.459 68.5106C248.816 64.5733 243.844 62.6046 237.543 62.6046C231.242 62.6046 226.221 64.5733 222.48 68.5106C218.837 72.3496 217.016 77.9111 217.016 85.1952V130.672H200.18V21.41H217.016V58.7657C219.871 55.3205 223.465 52.6628 227.796 50.7925C232.227 48.9223 237.051 47.9872 242.269 47.9872Z" fill="#1175E4"/>
<path d="M162.124 0V32.4832H127.42V130.671H86.4385V32.4832H52.1031V0H162.124Z" fill="#1175E4"/>
<path d="M40.981 0V130.671H0V0H40.981Z" fill="#1175E4"/>
<path d="M770.586 10.803L761.543 60.8534C761.543 60.8534 761.543 60.8534 761.542 60.8534L776.895 34.6117C781.962 58.5826 790.829 112.577 792.518 121.355C794.372 130.992 804.702 132 806.728 132C811.795 132 816.73 128.93 817.547 124.326C819.281 114.551 820.358 100.769 828.6 76.6634C836.842 52.5575 855.239 55.9324 861.506 60.8534C881.642 76.6634 937.89 124.326 996.634 124.326C1055.38 124.326 1094.24 58.6553 1120 30.2007C1104.07 39.4111 1088.8 53.5014 1071.13 60.8524C983.894 97.146 950.528 94.6462 886.772 56.6165C877.989 51.378 843.158 22.6686 825.171 42.1075C811.66 56.7095 811.45 82.0374 806.728 97.146C801.148 70.2207 791.715 17.2436 790.085 10.803C788.456 4.3623 784.833 0.137621 780.036 0.00257397C775.24 -0.132473 771.254 5.06691 770.586 10.803Z" fill="#1175E4"/>
</svg>
