<svg width="1510" height="178" viewBox="0 0 1510 178" fill="none" xmlns="http://www.w3.org/2000/svg">
<path d="M839.792 64.6677C848.148 64.6677 855.577 66.4585 862.077 70.04C868.709 73.6216 873.882 78.9276 877.597 85.958C881.443 92.9885 883.367 101.478 883.367 111.427V176.094H860.883V114.809C860.883 104.993 858.429 97.4986 853.521 92.3252C848.613 87.0192 841.914 84.3662 833.424 84.3662C824.935 84.3662 818.17 87.0192 813.129 92.3252C808.221 97.4986 805.767 104.993 805.767 114.809V176.094H783.084V28.8523H805.767V79.1929C809.614 74.5502 814.455 70.9686 820.292 68.4482C826.261 65.9279 832.761 64.6677 839.792 64.6677Z" fill="white"/>
<path d="M735.515 84.9623V145.65C735.515 149.762 736.444 152.746 738.301 154.603C740.291 156.328 743.607 157.19 748.25 157.19H762.178V176.093H744.27C734.056 176.093 726.23 173.705 720.791 168.93C715.353 164.154 712.633 156.394 712.633 145.65V84.9623H699.7V66.4577H712.633V39.1981H735.515V66.4577H762.178V84.9623H735.515Z" fill="white"/>
<path d="M679.268 28.8523V176.094H656.585V28.8523H679.268Z" fill="white"/>
<path d="M514.173 120.777C514.173 109.767 516.428 100.017 520.938 91.5279C525.581 83.0383 531.815 76.4721 539.641 71.8294C547.6 67.054 556.355 64.6663 565.906 64.6663C574.528 64.6663 582.023 66.3907 588.39 69.8396C594.89 73.1559 600.063 77.3344 603.91 82.3751V66.4571H626.792V176.092H603.91V159.776C600.063 164.95 594.824 169.261 588.191 172.71C581.559 176.159 573.998 177.883 565.508 177.883C556.09 177.883 547.468 175.495 539.641 170.72C531.815 165.812 525.581 159.047 520.938 150.424C516.428 141.67 514.173 131.787 514.173 120.777ZM603.91 121.175C603.91 113.614 602.318 107.048 599.135 101.477C596.084 95.9054 592.038 91.6605 586.997 88.7423C581.957 85.824 576.518 84.3648 570.681 84.3648C564.845 84.3648 559.406 85.824 554.366 88.7423C549.325 91.5279 545.213 95.7064 542.029 101.278C538.978 106.716 537.453 113.216 537.453 120.777C537.453 128.338 538.978 134.971 542.029 140.675C545.213 146.379 549.325 150.756 554.366 153.807C559.539 156.725 564.978 158.184 570.681 158.184C576.518 158.184 581.957 156.725 586.997 153.807C592.038 150.889 596.084 146.644 599.135 141.073C602.318 135.369 603.91 128.736 603.91 121.175Z" fill="white"/>
<path d="M499.409 118.588C499.409 122.701 499.144 126.415 498.613 129.731H414.845C415.508 138.486 418.758 145.516 424.595 150.822C430.431 156.128 437.594 158.781 446.084 158.781C458.288 158.781 466.91 153.674 471.951 143.46H496.425C493.108 153.542 487.073 161.832 478.318 168.332C469.696 174.699 458.951 177.883 446.084 177.883C435.605 177.883 426.186 175.562 417.829 170.919C409.605 166.143 403.105 159.511 398.33 151.021C393.687 142.399 391.366 132.45 391.366 121.175C391.366 109.9 393.621 100.017 398.131 91.5279C402.774 82.9056 409.207 76.2732 417.432 71.6304C425.788 66.9877 435.339 64.6663 446.084 64.6663C456.431 64.6663 465.65 66.9213 473.741 71.4314C481.833 75.9415 488.134 82.3087 492.644 90.533C497.154 98.6247 499.409 107.976 499.409 118.588ZM475.731 111.425C475.599 103.068 472.614 96.3696 466.777 91.3289C460.941 86.2882 453.711 83.7679 445.089 83.7679C437.263 83.7679 430.564 86.2882 424.993 91.3289C419.421 96.237 416.105 102.936 415.044 111.425H475.731Z" fill="white"/>
<path d="M326.42 64.6677C334.777 64.6677 342.205 66.4585 348.705 70.04C355.338 73.6216 360.511 78.9276 364.225 85.958C368.072 92.9885 369.995 101.478 369.995 111.427V176.094H347.511V114.809C347.511 104.993 345.057 97.4986 340.149 92.3252C335.241 87.0192 328.542 84.3662 320.053 84.3662C311.563 84.3662 304.798 87.0192 299.757 92.3252C294.849 97.4986 292.395 104.993 292.395 114.809V176.094H269.712V28.8523H292.395V79.1929C296.242 74.5502 301.084 70.9686 306.92 68.4482C312.89 65.9279 319.389 64.6677 326.42 64.6677Z" fill="white"/>
<path d="M218.437 0V43.7744H171.678V176.093H116.463V43.7744H70.2009V0H218.437Z" fill="white"/>
<path d="M55.2155 0V176.093H0V0H55.2155Z" fill="white"/>
<path d="M1038.25 14.5581L1026.06 82.0062C1026.06 82.0062 1026.06 82.0062 1026.06 82.0062L1046.75 46.6429C1053.57 78.9462 1065.52 151.709 1067.8 163.538C1070.29 176.526 1084.21 177.884 1086.94 177.884C1093.77 177.884 1100.42 173.747 1101.52 167.542C1103.85 154.369 1105.31 135.797 1116.41 103.312C1127.51 70.8267 1152.3 75.3748 1160.75 82.0062C1187.88 103.312 1263.66 167.542 1342.81 167.542C1421.96 167.542 1474.32 79.0441 1509.03 40.6986C1487.56 53.1105 1466.98 72.0987 1443.18 82.0049C1325.64 130.914 1280.69 127.546 1194.79 76.2966C1182.95 69.2372 1136.03 30.5484 1111.79 56.7443C1093.59 76.422 1093.3 110.554 1086.94 130.914C1079.42 94.6298 1066.71 23.2376 1064.52 14.5581C1062.32 5.87865 1057.44 0.185459 1050.98 0.0034687C1044.52 -0.178521 1039.15 6.82819 1038.25 14.5581Z" fill="white"/>
</svg>
