<svg width="256" height="256" viewBox="0 0 256 256" fill="none" xmlns="http://www.w3.org/2000/svg">
<rect width="256" height="256" fill="#1175E4"/>
<path d="M59.7322 106.175L56.0934 126.372C56.0934 126.372 56.0934 126.372 56.0931 126.372L62.2711 115.783C64.3099 125.455 67.8778 147.243 68.5574 150.785C69.3035 154.674 73.46 155.081 74.2756 155.081C76.3144 155.081 78.3002 153.842 78.6288 151.984C79.3264 148.04 79.7599 142.479 83.0763 132.751C86.3928 123.024 93.7957 124.386 96.3176 126.372C104.42 132.751 127.053 151.984 150.691 151.984C174.329 151.984 189.968 125.485 200.333 114.003C193.922 117.719 187.776 123.405 180.667 126.371C145.565 141.017 132.139 140.008 106.484 124.662C102.95 122.548 88.9346 110.963 81.6968 118.807C76.26 124.7 76.1755 134.92 74.2756 141.017C72.03 130.152 68.2342 108.774 67.5786 106.175C66.923 103.576 65.465 101.872 63.535 101.817C61.6049 101.763 60.0011 103.861 59.7322 106.175Z" fill="white"/>
</svg>
