<svg width="493" height="182" viewBox="0 0 493 182" fill="none" xmlns="http://www.w3.org/2000/svg">
<path d="M12.4373 14.895L0 83.9039L21.115 47.7222C28.0834 80.773 40.2783 155.219 42.6012 167.323C45.1514 180.611 59.3581 182 62.1455 182C69.114 182 75.9015 177.767 77.0247 171.419C79.4091 157.941 80.8906 138.94 92.226 105.703C103.561 72.4656 128.864 77.1189 137.484 83.9039C165.177 105.703 242.537 171.419 323.329 171.419C404.122 171.419 457.576 80.8732 493 41.6404C471.088 54.3395 450.084 73.7671 425.784 83.9025C305.808 133.944 259.919 130.497 172.232 78.0621C160.153 70.8393 112.249 31.2552 87.5109 58.0573C68.9283 78.1904 68.6395 113.112 62.1455 133.944C54.4702 96.8195 41.4964 23.7753 39.2558 14.895C37.0151 6.01469 32.0318 0.18975 25.435 0.00354896C18.8381 -0.182652 13.3562 6.98619 12.4373 14.895Z" fill="white"/>
</svg>
